<?xml version="1.0" encoding="UTF-8"?>
<svg xmlns="http://www.w3.org/2000/svg" width="1680" height="509" viewBox="0 0 1680 509" fill="none">
  <rect width="1679.74" height="508.4" fill="white"></rect>
  <path d="M458.368 72.4035C458.368 72.4035 386.729 41 266.513 41C146.296 41 74.6572 72.4035 74.6572 72.4035C74.6572 72.4035 68.2784 211.756 95.2657 290.265C143.352 428.636 266.513 467.4 266.513 467.4C266.513 467.4 389.673 428.636 437.76 290.265C464.747 211.266 458.368 72.4035 458.368 72.4035Z" fill="#E30613"></path>
  <path d="M394.089 192.129V268.675H304.785V358.469H228.24V268.675H138.445V192.129H228.24V102.825H304.785V192.129H394.089Z" fill="white"></path>
  <path d="M570.381 156.965C565.543 155.352 559.092 153.74 552.641 153.74C546.191 153.74 539.74 156.965 539.74 165.028C539.74 179.543 576.832 173.092 576.832 202.121C576.832 219.86 562.318 227.924 544.578 227.924C534.902 227.924 531.676 226.311 523.613 224.698L525.225 210.184C531.676 213.41 538.127 215.022 544.578 215.022C551.029 215.022 559.092 211.797 559.092 203.733C559.092 187.606 522 194.057 522 166.641C522 147.289 536.514 140.838 551.029 140.838C559.092 140.838 565.543 142.451 571.994 144.063L570.381 156.965Z" fill="black"></path>
  <path d="M633.278 177.93C630.052 176.318 626.827 176.318 621.989 176.318C612.313 176.318 605.862 184.381 605.862 195.67C605.862 206.959 610.7 216.635 621.989 216.635C626.827 216.635 631.665 215.023 634.89 213.41V226.312C630.052 227.924 625.214 227.924 618.763 227.924C597.798 227.924 588.122 213.41 588.122 195.67C588.122 177.93 599.411 163.416 618.763 163.416C625.214 163.416 630.052 163.416 634.89 165.029L633.278 177.93Z" fill="black"></path>
  <path d="M647.794 136H663.921V173.092C668.759 166.641 675.21 163.416 683.274 163.416C697.788 163.416 704.239 173.092 704.239 187.607V226.312H688.112V192.445C688.112 184.381 688.112 174.705 676.823 174.705C665.534 174.705 662.309 187.607 662.309 195.67V226.312H646.182V136H647.794Z" fill="black"></path>
  <path d="M717.139 165.029H734.878L749.393 211.797L762.294 165.029H781.647L794.548 211.797L807.45 165.029H823.577L804.225 227.924H784.872L771.971 181.156L759.069 227.924H741.329L717.139 165.029Z" fill="black"></path>
  <path d="M883.248 223.086C876.797 226.311 870.346 227.924 862.282 227.924C841.317 227.924 830.028 216.635 830.028 195.67C830.028 177.93 839.705 163.416 859.057 163.416C881.635 163.416 888.086 179.543 888.086 200.508H844.543C844.543 210.184 852.606 216.635 862.282 216.635C870.346 216.635 876.797 213.41 883.248 210.184V223.086V223.086ZM871.959 189.219C871.959 181.156 867.121 174.705 859.057 174.705C849.381 174.705 846.155 181.156 844.543 189.219H871.959Z" fill="black"></path>
  <path d="M902.6 137.613H918.727V153.74H902.6V137.613ZM902.6 165.029H918.727V227.924H902.6V165.029Z" fill="black"></path>
  <path d="M934.854 165.029H984.848V177.93L954.206 213.41H986.461V226.312H934.854V213.41L967.108 176.318H936.467V165.029H934.854Z" fill="black"></path>
  <path d="M1049.35 223.086C1042.9 226.311 1036.45 227.924 1028.39 227.924C1007.42 227.924 996.134 216.635 996.134 195.67C996.134 177.93 1005.81 163.416 1025.16 163.416C1047.74 163.416 1054.19 179.543 1054.19 200.508H1010.65C1010.65 210.184 1018.71 216.635 1028.39 216.635C1036.45 216.635 1042.9 213.41 1049.35 210.184V223.086V223.086ZM1039.68 189.219C1039.68 181.156 1034.84 174.705 1026.78 174.705C1017.1 174.705 1013.87 181.156 1012.26 189.219H1039.68Z" fill="black"></path>
  <path d="M1070.32 165.029H1084.83V179.543C1084.83 173.092 1092.9 163.416 1102.57 163.416C1104.19 163.416 1105.8 163.416 1107.41 163.416V179.543C1105.8 177.93 1102.57 177.93 1099.35 177.93C1086.45 177.93 1086.45 194.057 1086.45 203.734V226.312H1070.32V165.029Z" fill="black"></path>
  <path d="M1118.7 137.613H1134.83V153.74H1118.7V137.613ZM1118.7 165.029H1134.83V227.924H1118.7V165.029Z" fill="black"></path>
  <path d="M1191.27 177.93C1186.43 176.318 1183.21 174.705 1176.76 174.705C1171.92 174.705 1167.08 176.318 1167.08 181.156C1167.08 190.832 1194.5 184.381 1194.5 206.959C1194.5 221.473 1181.6 227.924 1168.69 227.924C1162.24 227.924 1155.79 226.311 1150.96 224.699L1152.57 211.797C1157.41 215.023 1162.24 216.635 1168.69 216.635C1173.53 216.635 1179.98 215.022 1179.98 208.572C1179.98 195.67 1152.57 205.346 1152.57 182.768C1152.57 169.867 1163.86 163.416 1176.76 163.416C1184.82 163.416 1189.66 165.029 1194.5 165.029L1191.27 177.93Z" fill="black"></path>
  <path d="M1249.33 177.93C1246.1 176.318 1242.88 176.318 1238.04 176.318C1228.36 176.318 1221.91 184.381 1221.91 195.67C1221.91 206.959 1226.75 216.635 1238.04 216.635C1242.88 216.635 1247.71 215.023 1250.94 213.41V226.312C1246.1 227.924 1241.26 227.924 1234.81 227.924C1213.85 227.924 1204.17 213.41 1204.17 195.67C1204.17 177.93 1215.46 163.416 1234.81 163.416C1241.26 163.416 1246.1 163.416 1250.94 165.029L1249.33 177.93Z" fill="black"></path>
  <path d="M1263.84 136H1279.97V173.092C1284.81 166.641 1291.26 163.416 1299.32 163.416C1313.84 163.416 1320.29 173.092 1320.29 187.607V226.312H1304.16V192.445C1304.16 184.381 1304.16 174.705 1292.87 174.705C1281.58 174.705 1278.36 187.607 1278.36 195.67V226.312H1262.23V136H1263.84Z" fill="black"></path>
  <path d="M1389.64 223.086C1383.18 226.311 1376.73 227.924 1368.67 227.924C1347.7 227.924 1336.42 216.635 1336.42 195.67C1336.42 177.93 1346.09 163.416 1365.44 163.416C1388.02 163.416 1394.47 179.543 1394.47 200.508H1350.93C1350.93 210.184 1358.99 216.635 1368.67 216.635C1376.73 216.635 1383.18 213.41 1389.64 210.184V223.086V223.086ZM1379.96 189.219C1379.96 181.156 1375.12 174.705 1367.06 174.705C1357.38 174.705 1354.16 181.156 1352.54 189.219H1379.96Z" fill="black"></path>
  <path d="M522 284.451H542.965L575.219 347.346V284.451H591.346V368.311H570.381L538.127 305.416V368.311H522V284.451Z" fill="black"></path>
  <path d="M612.314 310.254C618.764 307.029 626.828 305.416 633.279 305.416C652.631 305.416 660.695 313.48 660.695 331.219V339.283C660.695 345.734 660.695 350.572 660.695 355.41C660.695 360.248 660.695 365.086 660.695 369.924H646.18C646.18 366.699 646.18 361.861 646.18 360.248C642.955 366.699 634.891 371.537 626.828 371.537C615.539 371.537 604.25 365.086 604.25 353.797C604.25 344.121 609.088 339.283 615.539 336.057C621.99 332.832 630.053 332.832 636.504 332.832H646.18C646.18 323.156 641.342 319.93 631.666 319.93C625.215 319.93 617.152 323.156 612.314 326.381V310.254ZM631.666 358.635C636.504 358.635 639.73 357.023 642.955 353.797C646.18 350.572 646.18 345.734 646.18 340.895H639.73C631.666 340.895 621.99 342.508 621.99 352.184C621.99 355.41 625.215 358.635 631.666 358.635Z" fill="black"></path>
  <path d="M684.889 318.317H673.601V307.029H684.889V294.127L701.017 289.289V307.029H715.531V318.317H701.017V347.346C701.017 352.184 702.629 357.022 709.08 357.022C712.305 357.022 715.531 357.022 717.144 355.41V368.311C713.918 369.924 710.693 369.924 705.855 369.924C692.953 369.924 686.502 361.86 686.502 348.959V318.317H684.889Z" fill="black"></path>
  <path d="M728.432 279.613H744.559V295.74H728.432V279.613ZM728.432 307.029H744.559V369.924H728.432V307.029Z" fill="black"></path>
  <path d="M791.325 305.416C809.065 305.416 823.579 318.318 823.579 337.67C823.579 355.41 812.291 369.924 791.325 369.924C770.36 369.924 759.071 355.41 759.071 337.67C759.071 316.705 773.586 305.416 791.325 305.416ZM791.325 357.023C804.227 357.023 807.452 345.734 807.452 336.057C807.452 326.381 802.614 318.318 791.325 318.318C780.036 318.318 775.198 327.994 775.198 336.057C776.811 345.734 780.036 357.023 791.325 357.023Z" fill="black"></path>
  <path d="M839.706 307.029H855.833V315.092C860.671 308.641 867.122 305.416 876.798 305.416C891.313 305.416 897.763 315.092 897.763 329.607V368.312H881.636V334.445C881.636 326.381 881.636 316.705 870.347 316.705C859.058 316.705 855.833 329.607 855.833 337.67V368.312H839.706V307.029V307.029Z" fill="black"></path>
  <path d="M917.113 310.254C923.564 307.029 931.628 305.416 938.079 305.416C957.431 305.416 965.494 313.48 965.494 331.219V339.283C965.494 345.734 965.494 350.572 965.494 355.41C965.494 360.248 965.494 365.086 965.494 369.924H950.98C950.98 366.699 950.98 361.861 950.98 360.248C947.755 366.699 939.691 371.537 931.628 371.537C920.339 371.537 909.05 365.086 909.05 353.797C909.05 344.121 913.888 339.283 920.339 336.057C926.79 332.832 934.853 332.832 941.304 332.832H950.98C950.98 323.156 946.142 319.93 936.466 319.93C930.015 319.93 921.951 323.156 917.113 326.381V310.254ZM936.466 358.635C941.304 358.635 944.529 357.023 947.755 353.797C950.98 350.572 950.98 345.734 950.98 340.895H944.529C936.466 340.895 926.79 342.508 926.79 352.184C926.79 355.41 931.628 358.635 936.466 358.635Z" fill="black"></path>
  <path d="M984.85 278H1000.98V368.312H984.85V278Z" fill="black"></path>
  <path d="M1020.33 278H1036.46V315.092C1041.3 308.641 1046.14 305.416 1055.81 305.416C1075.16 305.416 1081.62 319.93 1081.62 337.67C1081.62 355.41 1075.16 369.924 1055.81 369.924C1049.36 369.924 1041.3 368.312 1036.46 360.248V368.312H1020.33V278V278ZM1050.97 357.023C1062.26 357.023 1063.88 345.734 1063.88 336.057C1063.88 327.994 1060.65 316.705 1050.97 316.705C1041.3 316.705 1036.46 327.994 1036.46 336.057C1036.46 345.734 1039.69 357.023 1050.97 357.023Z" fill="black"></path>
  <path d="M1096.12 279.613H1112.25V295.74H1096.12V279.613ZM1096.12 307.029H1112.25V369.924H1096.12V307.029Z" fill="black"></path>
  <path d="M1129.99 278H1146.12V315.092C1150.96 308.641 1155.8 305.416 1165.47 305.416C1184.83 305.416 1191.28 319.93 1191.28 337.67C1191.28 355.41 1184.83 369.924 1165.47 369.924C1159.02 369.924 1150.96 368.312 1146.12 360.248V368.312H1129.99V278ZM1160.63 357.023C1171.92 357.023 1173.54 345.734 1173.54 336.057C1173.54 327.994 1170.31 316.705 1160.63 316.705C1150.96 316.705 1146.12 327.994 1146.12 336.057C1147.73 345.734 1150.96 357.023 1160.63 357.023Z" fill="black"></path>
  <path d="M1207.4 278H1223.53V368.312H1207.4V278Z" fill="black"></path>
  <path d="M1242.88 279.613H1259.01V295.74H1242.88V279.613ZM1242.88 307.029H1259.01V369.924H1242.88V307.029Z" fill="black"></path>
  <path d="M1305.78 305.416C1323.52 305.416 1338.03 318.318 1338.03 337.67C1338.03 355.41 1326.74 369.924 1305.78 369.924C1284.81 369.924 1273.52 355.41 1273.52 337.67C1273.52 316.705 1288.04 305.416 1305.78 305.416ZM1305.78 357.023C1318.68 357.023 1321.9 345.734 1321.9 336.057C1321.9 326.381 1317.07 318.318 1305.78 318.318C1294.49 318.318 1289.65 327.994 1289.65 336.057C1289.65 345.734 1292.87 357.023 1305.78 357.023Z" fill="black"></path>
  <path d="M1359 318.317H1347.71V307.029H1359V294.127L1375.12 289.289V307.029H1389.64V318.317H1375.12V347.346C1375.12 352.184 1376.74 357.022 1383.19 357.022C1386.41 357.022 1389.64 357.022 1391.25 355.41V368.311C1388.03 369.924 1384.8 369.924 1379.96 369.924C1367.06 369.924 1360.61 361.86 1360.61 348.959V318.317H1359Z" fill="black"></path>
  <path d="M1402.54 278H1418.66V315.092C1423.5 308.641 1429.95 305.416 1438.02 305.416C1452.53 305.416 1458.98 315.092 1458.98 329.607V368.312H1442.85V334.445C1442.85 326.381 1442.86 316.705 1431.57 316.705C1420.28 316.705 1417.05 329.607 1417.05 337.67V368.312H1400.92V278H1402.54Z" fill="black"></path>
  <path d="M1528.33 365.086C1521.88 368.311 1515.43 369.924 1507.36 369.924C1486.4 369.924 1475.11 358.635 1475.11 337.67C1475.11 319.93 1484.79 305.416 1504.14 305.416C1526.72 305.416 1533.17 321.543 1533.17 342.508H1489.62C1489.62 352.184 1497.69 358.635 1507.36 358.635C1515.43 358.635 1521.88 355.41 1528.33 352.184V365.086V365.086ZM1517.04 331.219C1517.04 323.156 1512.2 316.705 1504.14 316.705C1494.46 316.705 1491.24 323.156 1489.62 331.219H1517.04Z" fill="black"></path>
  <path d="M1547.68 278H1563.81V331.219L1583.16 307.029H1602.51L1579.94 334.445L1605.74 368.312H1584.77L1563.81 337.67V368.312H1547.68V278V278Z" fill="black"></path>
</svg>
